#N canvas 41 40 1104 574 10;
#X obj -164 -122 r a0;
#X floatatom -164 -91 5 0 0 0 - - -;
#X obj 198 185 output~;
#X floatatom -164 -27 5 0 0 0 - - -;
#X obj -124 34 envflwr;
#X obj -110 -118 r a1;
#X floatatom -110 -91 5 0 0 0 - - -;
#X floatatom -110 -27 5 0 0 0 - - -;
#X obj -163 136 s ctrl1;
#X obj -135 111 s ctrl2;
#N canvas 0 0 450 300 (subpatch) 0;
#X array Graph 50 float 3;
#A 0 0.31342 0.317973 0.322482 0.326947 0.331367 0.33574 0.340066 0.344345
0.348577 0.352761 0.356896 0.360982 0.365018 0.369005 0.37294 0.376824
0.380656 0.384436 0.388163 0.391837 0.395456 0.399022 0.402532 0.405987
0.409386 0.412729 0.416016 0.419244 0.422415 0.425526 0.428578 0.431571
0.434504 0.437378 0.440191 0.442944 0.445636 0.448267 0.450836 0.453343
0.455788 0.45817 0.460489 0.462744 0.464936 0.467064 0.469128 0.471127
0.473061 0.474931;
#X coords 0 1 50 -1 200 140 1 0 0;
#X restore 605 -106 graph;
#X obj 669 168 metro 250;
#X obj 669 148 tgl 15 0 empty empty empty 0 -6 0 8 -262144 -1 -1 1
1;
#X text 687 145 graphing on/off;
#X obj 669 193 tabwrite~ Graph;
#X obj 604 136 r~ graph;
#X obj 603 165 *~ 0.5;
#X obj 69 -102 r ctrl2;
#X obj -164 -61 * -45;
#X obj -110 -61 * -65;
#X obj -110 82 s ctrl2-2;
#X obj 180 -108 r ctrl2-2;
#X obj 266 -105 r ctrl3;
#X obj 354 -109 r ctrl3-2;
#X obj -36 140 s ctrl3;
#X obj -25 78 s ctrl3-2;
#N canvas 178 197 211 160 flwr 0;
#X obj -30 79 s ctrl1;
#X obj 21 96 s ctrl2;
#X obj 28 66 s ctrl2-2;
#X obj 85 51 s ctrl3;
#X obj 83 30 s ctrl3-2;
#X obj 9 35 envflwr;
#X connect 5 0 0 0;
#X connect 5 1 1 0;
#X connect 5 2 2 0;
#X restore 1 98 pd flwr;
#X obj 69 -80 clipOscCtrl 42;
#X obj 180 -82 clipOscCtrl;
#X obj 266 -82 clipOscCtrl;
#X obj 353 -82 clipOscCtrl;
#X obj 669 120 loadbang;
#X floatatom 4 -36 5 0 0 0 - - -;
#X obj 4 -61 r a2;
#X floatatom 14 15 5 0 0 0 - - -;
#X obj 12 -10 * 100;
#N canvas 454 191 450 300 delay 0;
#X floatatom 67 68 0 0 0 0 - - -;
#X text 97 67 <-- delay time;
#X text 296 166 write to delay line;
#X text 255 92 read from delay line;
#X text 81 139 add the original and the delayed signal;
#X obj 46 140 +~;
#X text 125 116 feedback gain;
#X obj 67 92 delread~ G02-del 160;
#X obj 86 165 delwrite~ G02-del 2000;
#X msg 67 38 2000;
#X obj 130 41 loadbang;
#X obj 20 98 inlet~;
#X obj 28 203 outlet~;
#X obj 67 116 *~ 0.6;
#X connect 0 0 7 0;
#X connect 5 0 8 0;
#X connect 5 0 12 0;
#X connect 7 0 13 0;
#X connect 9 0 0 0;
#X connect 10 0 9 0;
#X connect 11 0 5 0;
#X connect 13 0 5 1;
#X restore 197 6 pd delay;
#X floatatom 438 -30 5 0 0 0 - - -;
#X floatatom -98 234 5 0 0 0 - - -;
#X obj 438 -106 r ctrl1;
#N canvas 853 122 450 300 moog 1;
#X obj 151 184 moog~;
#X floatatom 193 120 5 0 0 0 - - -;
#X floatatom 148 78 5 0 0 0 - - -;
#X obj 203 211 env~;
#X floatatom 203 231 5 0 0 0 - - -;
#X msg 147 137 reset;
#X obj 81 79 +~ 1;
#X floatatom 81 37 5 0 0 0 - - -;
#X floatatom 145 102 5 0 0 0 - - -;
#X obj 81 120 +~ 100;
#X obj 81 99 *~ 2000;
#X obj 191 156 sig~ 3;
#X text 237 137 Q (1-4);
#X obj 40 147 inlet~;
#X obj 70 253 outlet~;
#X obj 81 8 r fltlite;
#X obj 81 58 phasor~;
#X connect 0 0 3 0;
#X connect 0 0 14 0;
#X connect 1 0 11 0;
#X connect 2 0 10 1;
#X connect 3 0 4 0;
#X connect 5 0 0 0;
#X connect 6 0 10 0;
#X connect 7 0 16 0;
#X connect 8 0 9 1;
#X connect 9 0 0 1;
#X connect 10 0 9 0;
#X connect 11 0 0 2;
#X connect 13 0 0 0;
#X connect 15 0 7 0;
#X connect 16 0 6 0;
#X restore 124 112 pd moog;
#X obj 438 6 s fltctrl;
#X obj 438 -59 * 0.5;
#X connect 0 0 1 0;
#X connect 1 0 18 0;
#X connect 3 0 4 0;
#X connect 4 0 8 0;
#X connect 4 0 38 0;
#X connect 4 1 9 0;
#X connect 4 2 20 0;
#X connect 4 3 24 0;
#X connect 4 4 25 0;
#X connect 5 0 6 0;
#X connect 6 0 19 0;
#X connect 7 0 4 1;
#X connect 11 0 14 0;
#X connect 12 0 11 0;
#X connect 15 0 16 0;
#X connect 16 0 14 0;
#X connect 17 0 27 0;
#X connect 18 0 3 0;
#X connect 19 0 7 0;
#X connect 22 0 29 0;
#X connect 23 0 30 0;
#X connect 27 0 36 0;
#X connect 28 0 36 0;
#X connect 29 0 2 1;
#X connect 30 0 2 1;
#X connect 31 0 12 0;
#X connect 32 0 35 0;
#X connect 33 0 32 0;
#X connect 34 0 4 2;
#X connect 35 0 34 0;
#X connect 36 0 40 0;
#X connect 37 0 41 0;
#X connect 39 0 42 0;
#X connect 40 0 2 0;
#X connect 42 0 37 0;
