#N canvas 250 191 450 300 10;
#X obj 110 -47 hsl 128 15 0 127 0 0 empty empty empty -2 -8 0 10 -262144
-1 -1 6400 1;
#X obj 107 -20 mtof;
#X floatatom 121 102 5 -1 0.78 0 - - -;
#X obj 165 25 tgl 15 0 empty empty empty 17 7 0 10 -262144 -1 -1 1
1;
#X floatatom 147 -22 5 0 0 0 - - -;
#X obj 121 77 r ctrl1;
#X obj 107 53 *~ 0.4;
#X obj 142 151 s~ graph;
#X obj 107 14 osc~;
#X obj 109 183 outlet~;
#X obj 108 127 clip~ 0.99 1;
#X obj 107 -73 inlet;
#X obj 236 -2 loadbang;
#X floatatom 311 132 5 0 0 0 - - -;
#X obj 309 96 float \$1;
#X msg 306 65 bang;
#X connect 0 0 1 0;
#X connect 0 0 4 0;
#X connect 1 0 8 0;
#X connect 2 0 10 1;
#X connect 3 0 6 1;
#X connect 5 0 2 0;
#X connect 6 0 10 0;
#X connect 8 0 6 0;
#X connect 10 0 7 0;
#X connect 10 0 9 0;
#X connect 11 0 0 0;
#X connect 12 0 3 0;
#X connect 12 0 15 0;
#X connect 14 0 13 0;
#X connect 15 0 14 0;
