#N canvas 0 0 450 300 10;
#X floatatom 77 78 0 0 0 0 - - -;
#X text 107 77 <-- delay time;
#X text 306 176 write to delay line;
#X text 265 102 read from delay line;
#X text 91 149 add the original and the delayed signal;
#X obj 56 150 +~;
#X text 135 126 feedback gain;
#X obj 77 102 delread~ G02-del 160;
#X obj 96 175 delwrite~ G02-del 2000;
#X msg 77 48 2000;
#X obj 140 51 loadbang;
#X obj 30 108 inlet~;
#X obj 38 213 outlet~;
#X obj 77 126 *~ 0.6;
#X connect 0 0 7 0;
#X connect 5 0 8 0;
#X connect 5 0 12 0;
#X connect 7 0 13 0;
#X connect 9 0 0 0;
#X connect 10 0 9 0;
#X connect 11 0 5 0;
#X connect 13 0 5 1;
